Coordinates
version=1
nRows=26
nColumns=22
inDegrees=yes

Units are S.I. units (second, meters, Newtons, ...)
If the header above contains a line with 'inDegrees', this indicates whether rotational values are in degrees (yes) or radians (no).

endheader
time	pelvis_tilt	pelvis_list	pelvis_rotation	pelvis_tx	pelvis_ty	pelvis_tz	hip_flexion_r	hip_adduction_r	hip_rotation_r	knee_angle_r	ankle_angle_r	subtalar_angle_r	hip_flexion_l	hip_adduction_l	hip_rotation_l	knee_angle_l	ankle_angle_l	subtalar_angle_l	lumbar_extension	lumbar_bending	lumbar_rotation
      2.53000000	      1.60031470	      1.83344531	    -40.95559963	     -0.23473693	      1.00649312	     -0.18777679	     23.51456263	     -5.27153194	    -13.16472714	    -48.51077627	     10.44933682	      3.00434783	     -3.04113435	      3.14366167	    -10.38397167	    -10.37690851	     12.97480671	      3.48217499	     -6.19677882	     -6.06848596	     -6.28923904
      2.54000000	      1.56580270	      1.76974453	    -41.01524573	     -0.22815027	      1.00576324	     -0.18306375	     24.03217495	     -5.11094123	    -13.93763013	    -46.58059377	     10.72359421	      2.98504684	     -3.77470122	      3.16642128	    -10.43920547	     -9.98411219	     13.17512969	      3.43479737	     -6.27024142	     -5.92923995	     -6.53631877
      2.55000000	      1.53669570	      1.71924453	    -41.07004486	     -0.22161052	      1.00490230	     -0.17826814	     24.50860463	     -4.95085124	    -14.71502395	    -44.56657355	     10.91708183	      3.00913544	     -4.49796139	      3.19696183	    -10.49302902	     -9.60517072	     13.37851727	      3.38177314	     -6.34228170	     -5.80540834	     -6.76595769
      2.56000000	      1.52110812	      1.67802154	    -41.11934660	     -0.21510829	      1.00392620	     -0.17337491	     24.93514312	     -4.79513343	    -15.50827219	    -42.47963420	     11.02216663	      3.07872648	     -5.22337962	      3.23694665	    -10.54821990	     -9.23574083	     13.58940426	      3.33403942	     -6.42077577	     -5.70306847	     -6.96155663
      2.57000000	      1.51396324	      1.64449487	    -41.16153127	     -0.20862976	      1.00283507	     -0.16838795	     25.31558455	     -4.63669945	    -16.31146695	    -40.33157300	     11.05203448	      3.19877973	     -5.94889844	      3.28245108	    -10.60603627	     -8.87385772	     13.81178354	      3.30248084	     -6.50347151	     -5.61291435	     -7.13391091
      2.58000000	      1.52031076	      1.62091082	    -41.20157933	     -0.20217782	      1.00162923	     -0.16328393	     25.65244004	     -4.47742672	    -17.11823003	    -38.13813266	     11.01572732	      3.37719701	     -6.67781448	      3.33729270	    -10.66970649	     -8.52105522	     14.04653602	      3.29384902	     -6.58884535	     -5.54454563	     -7.27009169
      2.59000000	      1.52643193	      1.61347842	    -41.23522493	     -0.19575428	      1.00029256	     -0.15806633	     25.96486314	     -4.30744370	    -17.90484143	    -35.91040523	     10.92073644	      3.61860925	     -7.39197491	      3.39554911	    -10.74613023	     -8.18127962	     14.29787552	      3.30723943	     -6.66149011	     -5.49033306	     -7.39656895
      2.60000000	      1.54257991	      1.61636828	    -41.27096662	     -0.18933467	      0.99883887	     -0.15274166	     26.24730336	     -4.13505292	    -18.67449478	    -33.67105860	     10.79716800	      3.94207838	     -8.10537433	      3.46336055	    -10.83022381	     -7.85340187	     14.56340176	      3.34745304	     -6.73369852	     -5.45058074	     -7.47620486
      2.61000000	      1.54182039	      1.63207314	    -41.29952014	     -0.18293589	      0.99725198	     -0.14730305	     26.52033677	     -3.93646317	    -19.39909953	    -31.41670234	     10.63339995	      4.33057881	     -8.78364085	      3.51866933	    -10.92657909	     -7.55820449	     14.84364689	      3.39978844	     -6.78052756	     -5.40741602	     -7.55942836
      2.62000000	      1.54811115	      1.65133436	    -41.33406053	     -0.17654350	      0.99556309	     -0.14173124	     26.76901453	     -3.73113704	    -20.09619202	    -29.18310839	     10.48367994	      4.81977846	     -9.46146732	      3.57540221	    -11.03018083	     -7.28111635	     15.14323757	      3.48237852	     -6.82744963	     -5.37681751	     -7.59250527
      2.63000000	      1.53472577	      1.68864518	    -41.36462531	     -0.17014242	      0.99374569	     -0.13605321	     27.02286309	     -3.51183184	    -20.73361867	    -26.97144518	     10.33403086	      5.34984568	    -10.09611398	      3.62421585	    -11.13906744	     -7.04441612	     15.45497586	      3.57747803	     -6.84110693	     -5.34151157	     -7.60882253
      2.64000000	      1.50790217	      1.73253531	    -41.38761381	     -0.16371229	      0.99183645	     -0.13028679	     27.26875664	     -3.28363961	    -21.30870172	    -24.80107051	     10.20357479	      5.91226060	    -10.69580825	      3.66008501	    -11.24621975	     -6.85588851	     15.77832196	      3.69204041	     -6.83770196	     -5.29281048	     -7.61047125
      2.65000000	      1.46948256	      1.78589040	    -41.39837772	     -0.15726153	      0.98985342	     -0.12441997	     27.50704767	     -3.05569784	    -21.82137543	    -22.68469654	     10.10258156	      6.48248822	    -11.25543396	      3.68302472	    -11.34457693	     -6.72668435	     16.10640156	      3.83112510	     -6.81717477	     -5.24055231	     -7.59762453
      2.66000000	      1.40860190	      1.84627912	    -41.39314484	     -0.15077248	      0.98781147	     -0.11845067	     27.74437157	     -2.82734193	    -22.27057714	    -20.64304584	     10.01805425	      7.01642350	    -11.76888166	      3.68217172	    -11.42572769	     -6.65427322	     16.43299757	      3.98940900	     -6.77200432	     -5.17327877	     -7.57959760
      2.67000000	      1.33227570	      1.91581326	    -41.36964410	     -0.14420176	      0.98573425	     -0.11238119	     27.97562706	     -2.61378918	    -22.64245799	    -18.69464755	      9.95837576	      7.50293908	    -12.25180724	      3.66615474	    -11.46793809	     -6.62010177	     16.75015485	      4.18367976	     -6.70078782	     -5.09038668	     -7.56560135
      2.68000000	      1.23168677	      1.99218229	    -41.30841190	     -0.13757328	      0.98365321	     -0.10622843	     28.19639183	     -2.41650133	    -22.95922859	    -16.83737321	      9.89264107	      7.85064620	    -12.65896063	      3.61345252	    -11.48403454	     -6.69712716	     17.03578348	      4.35585036	     -6.60565022	     -4.98960278	     -7.56385937
      2.69000000	      1.13167205	      2.06201036	    -41.21611198	     -0.13080642	      0.98161535	     -0.09995798	     28.38209155	     -2.25404480	    -23.22380422	    -15.11501325	      9.85910625	      8.13390343	    -13.05959938	      3.53968099	    -11.43943920	     -6.81605556	     17.29732262	      4.58052100	     -6.50937643	     -4.86951959	     -7.58380955
      2.70000000	      1.04136554	      2.12804127	    -41.08843566	     -0.12390044	      0.97964415	     -0.09355420	     28.52807377	     -2.14111579	    -23.45186492	    -13.54915235	      9.86254949	      8.32145557	    -13.45195322	      3.44794367	    -11.33071226	     -6.99056882	     17.52247375	      4.86382515	     -6.41548434	     -4.74277767	     -7.63602585
      2.71000000	      0.93612146	      2.21944458	    -40.91680932	     -0.11684146	      0.97770507	     -0.08703322	     28.68402633	     -2.09535251	    -23.67683298	    -12.17721585	      9.83371428	      8.37691713	    -13.78987467	      3.34398686	    -11.11299756	     -7.23130461	     17.67763622	      5.05926313	     -6.27936866	     -4.61593871	     -7.71183494
      2.72000000	      0.88653933	      2.24898110	    -40.68957043	     -0.10956681	      0.97597657	     -0.08035328	     28.72435554	     -2.11112163	    -23.97073730	    -11.02819500	      9.89683319	      8.34914972	    -14.17704825	      3.19435199	    -10.86894012	     -7.57131404	     17.78015707	      5.42885942	     -6.22674480	     -4.46176681	     -7.83182225
      2.73000000	      0.82914537	      2.33175961	    -40.42132589	     -0.10208813	      0.97428703	     -0.07353828	     28.80494625	     -2.23140263	    -24.28405003	    -10.14818964	      9.90728050	      8.27194526	    -14.52338298	      3.06657511	    -10.47854209	     -7.92295249	     17.78725753	      5.66360030	     -6.10922659	     -4.33371241	     -7.99086076
      2.74000000	      0.82501378	      2.34298190	    -40.11360829	     -0.09438903	      0.97283906	     -0.06652260	     28.78258210	     -2.40232699	    -24.71174593	     -9.55590989	      9.96836668	      8.04804216	    -14.93304489	      2.88798493	    -10.06859992	     -8.35527109	     17.73422450	      6.07267066	     -6.07515379	     -4.16800781	     -8.17424626
      2.75000000	      0.82426165	      2.40247051	    -39.76586756	     -0.08645279	      0.97148693	     -0.05935700	     28.79708301	     -2.68943118	    -25.21370070	     -9.28200663	      9.96734376	      7.84548352	    -15.31554061	      2.73613151	     -9.51222057	     -8.79608364	     17.54671540	      6.35021570	     -5.98576826	     -4.03123182	     -8.39302237
      2.76000000	      0.86354895	      2.39082866	    -39.39297199	     -0.07829248	      0.97038945	     -0.05195612	     28.71510805	     -3.00392316	    -25.78860707	     -9.29511120	      9.93549163	      7.40921151	    -15.76058409	      2.52901777	     -8.96604561	     -9.29309108	     17.29641691	      6.77655445	     -5.96054321	     -3.84630647	     -8.63507154
      2.77000000	      0.89976100	      2.40782506	    -38.99788844	     -0.06988804	      0.96943302	     -0.04437004	     28.65927161	     -3.40656350	    -26.45657062	     -9.62337080	      9.82956476	      7.02958077	    -16.18955308	      2.33438868	     -8.29776692	     -9.79210203	     16.89684314	      7.10544542	     -5.88181078	     -3.66696425	     -8.89082822
      2.78000000	      0.96133984	      2.35329932	    -38.61393479	     -0.06130727	      0.96874878	     -0.03648878	     28.52133065	     -3.80330868	    -27.23668727	    -10.21022760	      9.57008192	      6.30478285	    -16.67233909	      2.08220038	     -7.69053668	    -10.33546343	     16.44049902	      7.56919686	     -5.84895952	     -3.43583335	     -9.10336155
